# xmcd
#
# Track frame offsets:
#	182
#	12887
#	26095
#	47310
#	63055
#	84312
#	96662
#	118642
#	139300
#	154785
#	178530
#
# Disc length: 2717 seconds
#
# Revision: 1
# Processed by: cddbd v1.5.1PL2 Copyright (c) Steve Scherf et al.
# Submitted via: EasyCDDAExtractor 9.0.0.1
#
DISCID=850a9b0b
DTITLE=Sharyn Lee - Sharyn Lee Naturalality
DYEAR=1900
DGENRE=Country
TTITLE0=Paradise
TTITLE1=Missin' You
TTITLE2=What I'm lookin' For
TTITLE3=Hurricane
TTITLE4=Always There For Me
TTITLE5=The Rain Song
TTITLE6=Lasting Love
TTITLE7=Love Leads The Way
TTITLE8=Touch Somebody
TTITLE9=Where The Wild Flowers Grow
TTITLE10=Naturalality
EXTD=
EXTT0=
EXTT1=
EXTT2=
EXTT3=
EXTT4=
EXTT5=
EXTT6=
EXTT7=
EXTT8=
EXTT9=
EXTT10=
PLAYORDER=
